<svg xmlns="http://www.w3.org/2000/svg" version="1.1" xmlns:xlink="http://www.w3.org/1999/xlink" xmlns:svgjs="http://svgjs.com/svgjs" width="2560" height="1440" preserveAspectRatio="none" viewBox="0 0 2560 1440"><g mask="url(&quot;#SvgjsMask1227&quot;)" fill="none"><use xlink:href="#SvgjsG1229" transform="translate(0, 0)" fill="rgba(236, 246, 253, 1)"></use><use xlink:href="#SvgjsG1229" transform="translate(0, 629)" fill="rgba(236, 246, 253, 1)"></use><use xlink:href="#SvgjsG1229" transform="translate(0, 1258)" fill="rgba(236, 246, 253, 1)"></use><use xlink:href="#SvgjsG1229" transform="translate(629, 0)" fill="rgba(236, 246, 253, 1)"></use><use xlink:href="#SvgjsG1229" transform="translate(629, 629)" fill="rgba(236, 246, 253, 1)"></use><use xlink:href="#SvgjsG1229" transform="translate(629, 1258)" fill="rgba(236, 246, 253, 1)"></use><use xlink:href="#SvgjsG1229" transform="translate(1258, 0)" fill="rgba(236, 246, 253, 1)"></use><use xlink:href="#SvgjsG1229" transform="translate(1258, 629)" fill="rgba(236, 246, 253, 1)"></use><use xlink:href="#SvgjsG1229" transform="translate(1258, 1258)" fill="rgba(236, 246, 253, 1)"></use><use xlink:href="#SvgjsG1229" transform="translate(1887, 0)" fill="rgba(236, 246, 253, 1)"></use><use xlink:href="#SvgjsG1229" transform="translate(1887, 629)" fill="rgba(236, 246, 253, 1)"></use><use xlink:href="#SvgjsG1229" transform="translate(1887, 1258)" fill="rgba(236, 246, 253, 1)"></use><use xlink:href="#SvgjsG1229" transform="translate(2516, 0)" fill="rgba(236, 246, 253, 1)"></use><use xlink:href="#SvgjsG1229" transform="translate(2516, 629)" fill="rgba(236, 246, 253, 1)"></use><use xlink:href="#SvgjsG1229" transform="translate(2516, 1258)" fill="rgba(236, 246, 253, 1)"></use></g><defs><mask id="SvgjsMask1227"><rect width="2560" height="1440" fill="#ffffff"></rect></mask><g id="SvgjsG1228"><path d="M8.579 0C5.824 0 3.283 2.068 2.755 4.347c-0.119 0.507-0.25 1.83-0.25 1.829L1.236 9.37A0.488 0.488 0 0 0 1.2 9.561a0.491 0.491 0 0 0 0.491 0.489h0.814v1.697c0 1.323 1.072 2.395 2.394 2.396h0.951V16h6.478V10.847c1.413-1.111 2.32-2.838 2.32-4.775C14.648 2.718 11.93 0 8.579 0z m-4.583 7.387c-0.372 0-0.675-0.304-0.675-0.679a0.677 0.677 0 0 1 0.675-0.677c0.375 0 0.68 0.303 0.68 0.677a0.68 0.68 0 0 1-0.68 0.679z"></path></g><g id="SvgjsG1229"><use xlink:href="#SvgjsG1228" transform="translate(0, 0) scale(1.7)" fill="rgba(236, 246, 253, 1)"></use><use xlink:href="#SvgjsG1228" transform="translate(0, 62.9) scale(1.7)" fill="rgba(236, 246, 253, 1)"></use><use xlink:href="#SvgjsG1228" transform="translate(0, 125.8) scale(1.7)" fill="rgba(236, 246, 253, 1)"></use><use xlink:href="#SvgjsG1228" transform="translate(0, 188.7) scale(1.7)" fill="rgba(236, 246, 253, 1)"></use><use xlink:href="#SvgjsG1228" transform="translate(0, 251.6) scale(1.7)" fill="rgba(236, 246, 253, 1)"></use><use xlink:href="#SvgjsG1228" transform="translate(0, 314.5) scale(1.7)" fill="rgba(236, 246, 253, 1)"></use><use xlink:href="#SvgjsG1228" transform="translate(0, 377.4) scale(1.7)" fill="rgba(236, 246, 253, 1)"></use><use xlink:href="#SvgjsG1228" transform="translate(0, 440.3) scale(1.7)" fill="rgba(236, 246, 253, 1)"></use><use xlink:href="#SvgjsG1228" transform="translate(0, 503.2) scale(1.7)" fill="rgba(236, 246, 253, 1)"></use><use xlink:href="#SvgjsG1228" transform="translate(0, 566.1) scale(1.7)" fill="rgba(236, 246, 253, 1)"></use><use xlink:href="#SvgjsG1228" transform="translate(62.9, 0) scale(1.7)" fill="rgba(236, 246, 253, 1)"></use><use xlink:href="#SvgjsG1228" transform="translate(62.9, 62.9) scale(1.7)" fill="rgba(236, 246, 253, 1)"></use><use xlink:href="#SvgjsG1228" transform="translate(62.9, 125.8) scale(1.7)" fill="rgba(236, 246, 253, 1)"></use><use xlink:href="#SvgjsG1228" transform="translate(62.9, 188.7) scale(1.7)" fill="rgba(236, 246, 253, 1)"></use><use xlink:href="#SvgjsG1228" transform="translate(62.9, 251.6) scale(1.7)" fill="rgba(236, 246, 253, 1)"></use><use xlink:href="#SvgjsG1228" transform="translate(62.9, 314.5) scale(1.7)" fill="rgba(236, 246, 253, 1)"></use><use xlink:href="#SvgjsG1228" transform="translate(62.9, 377.4) scale(1.7)" fill="rgba(236, 246, 253, 1)"></use><use xlink:href="#SvgjsG1228" transform="translate(62.9, 440.3) scale(1.7)" fill="rgba(236, 246, 253, 1)"></use><use xlink:href="#SvgjsG1228" transform="translate(62.9, 503.2) scale(1.7)" fill="rgba(236, 246, 253, 1)"></use><use xlink:href="#SvgjsG1228" transform="translate(62.9, 566.1) scale(1.7)" fill="rgba(236, 246, 253, 1)"></use><use xlink:href="#SvgjsG1228" transform="translate(125.8, 0) scale(1.7)" fill="rgba(236, 246, 253, 1)"></use><use xlink:href="#SvgjsG1228" transform="translate(125.8, 62.9) scale(1.7)" fill="rgba(236, 246, 253, 1)"></use><use xlink:href="#SvgjsG1228" transform="translate(125.8, 125.8) scale(1.7)" fill="rgba(236, 246, 253, 1)"></use><use xlink:href="#SvgjsG1228" transform="translate(125.8, 188.7) scale(1.7)" fill="rgba(236, 246, 253, 1)"></use><use xlink:href="#SvgjsG1228" transform="translate(125.8, 251.6) scale(1.7)" fill="rgba(236, 246, 253, 1)"></use><use xlink:href="#SvgjsG1228" transform="translate(125.8, 314.5) scale(1.7)" fill="rgba(236, 246, 253, 1)"></use><use xlink:href="#SvgjsG1228" transform="translate(125.8, 377.4) scale(1.7)" fill="rgba(236, 246, 253, 1)"></use><use xlink:href="#SvgjsG1228" transform="translate(125.8, 440.3) scale(1.7)" fill="rgba(236, 246, 253, 1)"></use><use xlink:href="#SvgjsG1228" transform="translate(125.8, 503.2) scale(1.7)" fill="rgba(236, 246, 253, 1)"></use><use xlink:href="#SvgjsG1228" transform="translate(125.8, 566.1) scale(1.7)" fill="rgba(236, 246, 253, 1)"></use><use xlink:href="#SvgjsG1228" transform="translate(188.7, 0) scale(1.7)" fill="rgba(236, 246, 253, 1)"></use><use xlink:href="#SvgjsG1228" transform="translate(188.7, 62.9) scale(1.7)" fill="rgba(236, 246, 253, 1)"></use><use xlink:href="#SvgjsG1228" transform="translate(188.7, 125.8) scale(1.7)" fill="rgba(236, 246, 253, 1)"></use><use xlink:href="#SvgjsG1228" transform="translate(188.7, 188.7) scale(1.7)" fill="rgba(236, 246, 253, 1)"></use><use xlink:href="#SvgjsG1228" transform="translate(188.7, 251.6) scale(1.7)" fill="rgba(236, 246, 253, 1)"></use><use xlink:href="#SvgjsG1228" transform="translate(188.7, 314.5) scale(1.7)" fill="rgba(236, 246, 253, 1)"></use><use xlink:href="#SvgjsG1228" transform="translate(188.7, 377.4) scale(1.7)" fill="rgba(236, 246, 253, 1)"></use><use xlink:href="#SvgjsG1228" transform="translate(188.7, 440.3) scale(1.7)" fill="rgba(236, 246, 253, 1)"></use><use xlink:href="#SvgjsG1228" transform="translate(188.7, 503.2) scale(1.7)" fill="rgba(236, 246, 253, 1)"></use><use xlink:href="#SvgjsG1228" transform="translate(188.7, 566.1) scale(1.7)" fill="rgba(236, 246, 253, 1)"></use><use xlink:href="#SvgjsG1228" transform="translate(251.6, 0) scale(1.7)" fill="rgba(236, 246, 253, 1)"></use><use xlink:href="#SvgjsG1228" transform="translate(251.6, 62.9) scale(1.7)" fill="rgba(236, 246, 253, 1)"></use><use xlink:href="#SvgjsG1228" transform="translate(251.6, 125.8) scale(1.7)" fill="rgba(236, 246, 253, 1)"></use><use xlink:href="#SvgjsG1228" transform="translate(251.6, 188.7) scale(1.7)" fill="rgba(236, 246, 253, 1)"></use><use xlink:href="#SvgjsG1228" transform="translate(251.6, 251.6) scale(1.7)" fill="rgba(236, 246, 253, 1)"></use><use xlink:href="#SvgjsG1228" transform="translate(251.6, 314.5) scale(1.7)" fill="rgba(236, 246, 253, 1)"></use><use xlink:href="#SvgjsG1228" transform="translate(251.6, 377.4) scale(1.7)" fill="rgba(236, 246, 253, 1)"></use><use xlink:href="#SvgjsG1228" transform="translate(251.6, 440.3) scale(1.7)" fill="rgba(236, 246, 253, 1)"></use><use xlink:href="#SvgjsG1228" transform="translate(251.6, 503.2) scale(1.7)" fill="rgba(236, 246, 253, 1)"></use><use xlink:href="#SvgjsG1228" transform="translate(251.6, 566.1) scale(1.7)" fill="rgba(236, 246, 253, 1)"></use><use xlink:href="#SvgjsG1228" transform="translate(314.5, 0) scale(1.7)" fill="rgba(236, 246, 253, 1)"></use><use xlink:href="#SvgjsG1228" transform="translate(314.5, 62.9) scale(1.7)" fill="rgba(236, 246, 253, 1)"></use><use xlink:href="#SvgjsG1228" transform="translate(314.5, 125.8) scale(1.7)" fill="rgba(236, 246, 253, 1)"></use><use xlink:href="#SvgjsG1228" transform="translate(314.5, 188.7) scale(1.7)" fill="rgba(236, 246, 253, 1)"></use><use xlink:href="#SvgjsG1228" transform="translate(314.5, 251.6) scale(1.7)" fill="rgba(236, 246, 253, 1)"></use><use xlink:href="#SvgjsG1228" transform="translate(314.5, 314.5) scale(1.7)" fill="rgba(236, 246, 253, 1)"></use><use xlink:href="#SvgjsG1228" transform="translate(314.5, 377.4) scale(1.7)" fill="rgba(236, 246, 253, 1)"></use><use xlink:href="#SvgjsG1228" transform="translate(314.5, 440.3) scale(1.7)" fill="rgba(236, 246, 253, 1)"></use><use xlink:href="#SvgjsG1228" transform="translate(314.5, 503.2) scale(1.7)" fill="rgba(236, 246, 253, 1)"></use><use xlink:href="#SvgjsG1228" transform="translate(314.5, 566.1) scale(1.7)" fill="rgba(236, 246, 253, 1)"></use><use xlink:href="#SvgjsG1228" transform="translate(377.4, 0) scale(1.7)" fill="rgba(236, 246, 253, 1)"></use><use xlink:href="#SvgjsG1228" transform="translate(377.4, 62.9) scale(1.7)" fill="rgba(236, 246, 253, 1)"></use><use xlink:href="#SvgjsG1228" transform="translate(377.4, 125.8) scale(1.7)" fill="rgba(236, 246, 253, 1)"></use><use xlink:href="#SvgjsG1228" transform="translate(377.4, 188.7) scale(1.7)" fill="rgba(236, 246, 253, 1)"></use><use xlink:href="#SvgjsG1228" transform="translate(377.4, 251.6) scale(1.7)" fill="rgba(236, 246, 253, 1)"></use><use xlink:href="#SvgjsG1228" transform="translate(377.4, 314.5) scale(1.7)" fill="rgba(236, 246, 253, 1)"></use><use xlink:href="#SvgjsG1228" transform="translate(377.4, 377.4) scale(1.7)" fill="rgba(236, 246, 253, 1)"></use><use xlink:href="#SvgjsG1228" transform="translate(377.4, 440.3) scale(1.7)" fill="rgba(236, 246, 253, 1)"></use><use xlink:href="#SvgjsG1228" transform="translate(377.4, 503.2) scale(1.7)" fill="rgba(236, 246, 253, 1)"></use><use xlink:href="#SvgjsG1228" transform="translate(377.4, 566.1) scale(1.7)" fill="rgba(236, 246, 253, 1)"></use><use xlink:href="#SvgjsG1228" transform="translate(440.3, 0) scale(1.7)" fill="rgba(236, 246, 253, 1)"></use><use xlink:href="#SvgjsG1228" transform="translate(440.3, 62.9) scale(1.7)" fill="rgba(236, 246, 253, 1)"></use><use xlink:href="#SvgjsG1228" transform="translate(440.3, 125.8) scale(1.7)" fill="rgba(236, 246, 253, 1)"></use><use xlink:href="#SvgjsG1228" transform="translate(440.3, 188.7) scale(1.7)" fill="rgba(236, 246, 253, 1)"></use><use xlink:href="#SvgjsG1228" transform="translate(440.3, 251.6) scale(1.7)" fill="rgba(236, 246, 253, 1)"></use><use xlink:href="#SvgjsG1228" transform="translate(440.3, 314.5) scale(1.7)" fill="rgba(236, 246, 253, 1)"></use><use xlink:href="#SvgjsG1228" transform="translate(440.3, 377.4) scale(1.7)" fill="rgba(236, 246, 253, 1)"></use><use xlink:href="#SvgjsG1228" transform="translate(440.3, 440.3) scale(1.7)" fill="rgba(236, 246, 253, 1)"></use><use xlink:href="#SvgjsG1228" transform="translate(440.3, 503.2) scale(1.7)" fill="rgba(236, 246, 253, 1)"></use><use xlink:href="#SvgjsG1228" transform="translate(440.3, 566.1) scale(1.7)" fill="rgba(236, 246, 253, 1)"></use><use xlink:href="#SvgjsG1228" transform="translate(503.2, 0) scale(1.7)" fill="rgba(236, 246, 253, 1)"></use><use xlink:href="#SvgjsG1228" transform="translate(503.2, 62.9) scale(1.7)" fill="rgba(236, 246, 253, 1)"></use><use xlink:href="#SvgjsG1228" transform="translate(503.2, 125.8) scale(1.7)" fill="rgba(236, 246, 253, 1)"></use><use xlink:href="#SvgjsG1228" transform="translate(503.2, 188.7) scale(1.7)" fill="rgba(236, 246, 253, 1)"></use><use xlink:href="#SvgjsG1228" transform="translate(503.2, 251.6) scale(1.7)" fill="rgba(236, 246, 253, 1)"></use><use xlink:href="#SvgjsG1228" transform="translate(503.2, 314.5) scale(1.7)" fill="rgba(236, 246, 253, 1)"></use><use xlink:href="#SvgjsG1228" transform="translate(503.2, 377.4) scale(1.7)" fill="rgba(236, 246, 253, 1)"></use><use xlink:href="#SvgjsG1228" transform="translate(503.2, 440.3) scale(1.7)" fill="rgba(236, 246, 253, 1)"></use><use xlink:href="#SvgjsG1228" transform="translate(503.2, 503.2) scale(1.7)" fill="rgba(236, 246, 253, 1)"></use><use xlink:href="#SvgjsG1228" transform="translate(503.2, 566.1) scale(1.7)" fill="rgba(236, 246, 253, 1)"></use><use xlink:href="#SvgjsG1228" transform="translate(566.1, 0) scale(1.7)" fill="rgba(236, 246, 253, 1)"></use><use xlink:href="#SvgjsG1228" transform="translate(566.1, 62.9) scale(1.7)" fill="rgba(236, 246, 253, 1)"></use><use xlink:href="#SvgjsG1228" transform="translate(566.1, 125.8) scale(1.7)" fill="rgba(236, 246, 253, 1)"></use><use xlink:href="#SvgjsG1228" transform="translate(566.1, 188.7) scale(1.7)" fill="rgba(236, 246, 253, 1)"></use><use xlink:href="#SvgjsG1228" transform="translate(566.1, 251.6) scale(1.7)" fill="rgba(236, 246, 253, 1)"></use><use xlink:href="#SvgjsG1228" transform="translate(566.1, 314.5) scale(1.7)" fill="rgba(236, 246, 253, 1)"></use><use xlink:href="#SvgjsG1228" transform="translate(566.1, 377.4) scale(1.7)" fill="rgba(236, 246, 253, 1)"></use><use xlink:href="#SvgjsG1228" transform="translate(566.1, 440.3) scale(1.7)" fill="rgba(236, 246, 253, 1)"></use><use xlink:href="#SvgjsG1228" transform="translate(566.1, 503.2) scale(1.7)" fill="rgba(236, 246, 253, 1)"></use><use xlink:href="#SvgjsG1228" transform="translate(566.1, 566.1) scale(1.7)" fill="rgba(236, 246, 253, 1)"></use></g></defs></svg>